<svg id="Layer_1" data-name="Layer 1" xmlns="http://www.w3.org/2000/svg" viewBox="0 0 104.57 40"><defs><style>.cls-1{fill:#291f51;}.cls-2{fill:#43b18a;}</style></defs><path class="cls-1" d="M42.13,23.45H29.64A3.8,3.8,0,0,0,30.72,26a3.32,3.32,0,0,0,2.34.88,2.89,2.89,0,0,0,2.87-1.74H41.8a8,8,0,0,1-1.63,3.2,8.13,8.13,0,0,1-3,2.22,9.41,9.41,0,0,1-4,.81,9.65,9.65,0,0,1-4.71-1.13A8,8,0,0,1,25.32,27a10,10,0,0,1-1.16-4.9,10.1,10.1,0,0,1,1.14-4.9A8,8,0,0,1,28.51,14a9.78,9.78,0,0,1,4.75-1.13A9.61,9.61,0,0,1,37.9,14a7.85,7.85,0,0,1,3.18,3.13,9.5,9.5,0,0,1,1.14,4.74A15,15,0,0,1,42.13,23.45Zm-5.55-3.06a2.82,2.82,0,0,0-1-2.26,3.55,3.55,0,0,0-2.42-.84,3.51,3.51,0,0,0-2.34.81,3.6,3.6,0,0,0-1.17,2.29Z" transform="translate(0)"/><path class="cls-1" d="M23.37,8.49,15.2,31.13h-7L0,8.49H6l5.71,17.09L17.43,8.49Z" transform="translate(0)"/><path class="cls-1" d="M55.3,13.65a5.58,5.58,0,0,1,2.21,2V13.13H63v18a10.11,10.11,0,0,1-1,4.5,7.47,7.47,0,0,1-3,3.21A9.73,9.73,0,0,1,54,40a10.39,10.39,0,0,1-6.48-1.89A7.07,7.07,0,0,1,44.71,33h5.45a2.61,2.61,0,0,0,1.22,1.63,4.46,4.46,0,0,0,2.39.6,3.75,3.75,0,0,0,2.73-1,4.23,4.23,0,0,0,1-3.14V28.55a6.19,6.19,0,0,1-2.22,2.05,6.83,6.83,0,0,1-3.33.79,7.34,7.34,0,0,1-4-1.15A7.92,7.92,0,0,1,45.08,27a10.79,10.79,0,0,1-1-4.88,10.74,10.74,0,0,1,1-4.87A7.83,7.83,0,0,1,47.93,14a7.49,7.49,0,0,1,4-1.13A6.87,6.87,0,0,1,55.3,13.65Zm1.07,5.22a3.76,3.76,0,0,0-2.79-1.19,3.72,3.72,0,0,0-2.79,1.18,4.41,4.41,0,0,0-1.15,3.24,4.53,4.53,0,0,0,1.15,3.27,3.67,3.67,0,0,0,2.79,1.21,3.76,3.76,0,0,0,2.79-1.19,4.53,4.53,0,0,0,1.14-3.26A4.53,4.53,0,0,0,56.37,18.87Z" transform="translate(0)"/><path class="cls-1" d="M67,13.13v18h5.51v-18Z" transform="translate(0)"/><path class="cls-1" d="M79.67,30.58a7.17,7.17,0,0,1-2.9-2.21,5.73,5.73,0,0,1-1.19-3.14H81a2,2,0,0,0,.87,1.51,3,3,0,0,0,1.9.58,2.72,2.72,0,0,0,1.6-.4A1.25,1.25,0,0,0,86,25.87a1.21,1.21,0,0,0-.8-1.14,16.82,16.82,0,0,0-2.62-.83A23.32,23.32,0,0,1,79.32,23a5.53,5.53,0,0,1-2.23-1.58,4.32,4.32,0,0,1-.93-2.92A5,5,0,0,1,77,15.63a5.79,5.79,0,0,1,2.52-2,9.67,9.67,0,0,1,4-.74,7.91,7.91,0,0,1,5.34,1.68A6.55,6.55,0,0,1,91.06,19H86a2.17,2.17,0,0,0-.82-1.48A2.82,2.82,0,0,0,83.32,17a2.52,2.52,0,0,0-1.49.37,1.2,1.2,0,0,0-.51,1,1.24,1.24,0,0,0,.82,1.16,13.23,13.23,0,0,0,2.56.77,27.55,27.55,0,0,1,3.26,1,5.56,5.56,0,0,1,2.21,1.61,4.58,4.58,0,0,1,1,3,4.76,4.76,0,0,1-.89,2.83,5.88,5.88,0,0,1-2.55,1.95,9.79,9.79,0,0,1-3.85.71A10.35,10.35,0,0,1,79.67,30.58Z" transform="translate(0)"/><path class="cls-1" d="M104.57,26.45v4.68h-2.8a6.87,6.87,0,0,1-4.68-1.47c-1.12-1-1.68-2.57-1.68-4.79V17.71H93.22V13.13h2.19V8.74h5.52v4.39h3.61v4.58h-3.61v7.23a1.52,1.52,0,0,0,.39,1.16,1.9,1.9,0,0,0,1.29.35Z" transform="translate(0)"/><polygon class="cls-1" points="9.63 11.54 6.4 2.32 6.7 2.65 3.54 1.47 4.2 0 7.18 1.61 7.41 1.73 7.48 1.94 10.72 11.16 9.63 11.54 9.63 11.54"/><path class="cls-2" d="M7.26,8.67l4.52,13.25L16.12,9.21a6.32,6.32,0,0,1-3.64.2c-.81-.22-1.18-.54-2.13-.76A7.05,7.05,0,0,0,7.26,8.67Z" transform="translate(0)"/><path class="cls-2" d="M76.8,10.26a6.13,6.13,0,0,1-6.31.74l6.45-6.06L70,10.43a6.1,6.1,0,0,1,1.65-6.14,6.19,6.19,0,0,1,6.7-.57A6.2,6.2,0,0,1,76.8,10.26Z" transform="translate(0)"/><path class="cls-2" d="M64.13,9.58a4.19,4.19,0,0,0,4.19,1.21L64.63,6l4.09,4.51a4.19,4.19,0,0,0-.43-4.35A4.25,4.25,0,0,0,63.81,5,4.24,4.24,0,0,0,64.13,9.58Z" transform="translate(0)"/></svg>